<svg width="978" height="584" fill="none" xmlns="http://www.w3.org/2000/svg"><path fill-rule="evenodd" clip-rule="evenodd" d="M70.883 73.141c-4.271 4.284-12.919 8.048-23.095 8.48-9.987.426-19.207-2.448-25.22-8.48-13.343-13.383-13.343-35.08-.002-48.462 8.158-8.181 23.672-11.7 40.1-12.306 7.33-.27 14.112.06 19.242.489.308 5.475.506 12.8.13 20.647-.387 8.128-1.374 16.473-3.328 23.77-1.996 7.454-4.72 12.745-7.827 15.862zm8.325 8.35c-13.776 13.817-47.026 17.994-64.966 0-17.94-17.994-17.94-47.168 0-65.162C37.406-6.905 92.852 2.24 92.852 2.24s7.073 58.47-13.644 79.25zM65.857 27.422a6.54 6.54 0 01-.001 9.229L51.77 50.779l13.068-1.91c3.556-.519 6.858 1.951 7.375 5.517.519 3.567-1.944 6.88-5.5 7.399L34.24 66.531a6.5 6.5 0 01-6.753-3.532 6.542 6.542 0 011.215-7.54l5.93-5.948V32.886c0-3.605 2.912-6.526 6.506-6.526 3.593 0 6.506 2.922 6.506 6.526v3.574l9.01-9.038a6.493 6.493 0 019.203 0zm115.134 115.71c-3.012 3.054-9.111 5.737-16.288 6.045-7.043.303-13.546-1.745-17.787-6.045-9.41-9.538-9.41-25.003-.001-34.542 5.753-5.831 16.695-8.339 28.281-8.77 5.169-.193 9.953.042 13.571.348.217 3.902.356 9.123.092 14.716-.273 5.794-.97 11.741-2.348 16.942-1.408 5.314-3.328 9.085-5.52 11.306zm5.872 5.952c-9.716 9.848-33.166 12.826-45.818 0-12.653-12.826-12.653-33.62 0-46.445 16.336-16.56 55.44-10.042 55.44-10.042s4.988 41.676-9.622 56.487zm-9.417-38.539a4.697 4.697 0 01-.001 6.579l-9.934 10.07 9.217-1.361c2.507-.371 4.836 1.39 5.201 3.932.366 2.542-1.371 4.903-3.879 5.273l-22.902 3.383a4.571 4.571 0 01-4.762-2.517 4.699 4.699 0 01.856-5.375l4.182-4.239v-11.85c0-2.569 2.055-4.652 4.589-4.652 2.534 0 4.588 2.083 4.588 4.652v2.548l6.355-6.443a4.547 4.547 0 016.49 0zM41.307 572.905c-2.248 2.278-6.8 4.281-12.156 4.511-5.256.226-10.108-1.303-13.273-4.511-7.023-7.119-7.023-18.66-.001-25.778 4.293-4.352 12.459-6.223 21.105-6.545 3.858-.144 7.428.031 10.127.259.163 2.913.267 6.809.07 10.983-.205 4.323-.724 8.762-1.753 12.643-1.05 3.965-2.483 6.78-4.12 8.438zm4.381 4.441c-7.25 7.35-24.75 9.572-34.192 0-9.442-9.571-9.442-25.089 0-34.66 12.191-12.359 41.374-7.494 41.374-7.494s3.722 31.101-7.181 42.154zm-7.027-28.76a3.505 3.505 0 010 4.909l-7.414 7.515 6.878-1.016c1.872-.276 3.61 1.038 3.882 2.935.273 1.897-1.023 3.659-2.895 3.935l-17.091 2.525a3.414 3.414 0 01-3.554-1.879 3.507 3.507 0 01.64-4.011l3.12-3.163v-8.844c0-1.917 1.533-3.471 3.424-3.471 1.892 0 3.425 1.554 3.425 3.471v1.902l4.742-4.808a3.393 3.393 0 014.843 0zm435.822-163.897c-3.102 3.144-9.383 5.907-16.774 6.225-7.254.312-13.95-1.798-18.318-6.225-9.691-9.824-9.691-25.75-.001-35.574 5.925-6.005 17.193-8.588 29.125-9.033 5.324-.198 10.25.044 13.976.359.224 4.019.367 9.396.095 15.156-.281 5.967-.998 12.092-2.418 17.448-1.45 5.472-3.427 9.356-5.685 11.644zm6.047 6.129c-10.006 10.142-34.156 13.208-47.186 0-13.029-13.208-13.029-34.624 0-47.832 16.824-17.054 57.096-10.341 57.096-10.341s5.137 42.92-9.91 58.173zm-9.697-39.689a4.836 4.836 0 01-.001 6.774l-10.231 10.371 9.491-1.402c2.583-.381 4.982 1.432 5.357 4.05.377 2.618-1.411 5.049-3.994 5.431l-23.586 3.483a4.71 4.71 0 01-4.905-2.592 4.84 4.84 0 01.882-5.535l4.307-4.365V355.14c0-2.646 2.116-4.791 4.726-4.791s4.725 2.145 4.725 4.791v2.623l6.545-6.634a4.681 4.681 0 016.684 0zm489.65 88.56c-3.102 3.144-9.383 5.907-16.774 6.225-7.254.312-13.95-1.798-18.318-6.225-9.691-9.824-9.691-25.75-.001-35.574 5.925-6.005 17.193-8.588 29.125-9.033 5.324-.198 10.25.044 13.976.359.224 4.019.367 9.396.095 15.156-.281 5.967-.999 12.092-2.418 17.448-1.45 5.472-3.427 9.356-5.685 11.644zm6.047 6.129c-10.006 10.142-34.156 13.208-47.186 0-13.029-13.208-13.029-34.624 0-47.832 16.824-17.054 57.096-10.341 57.096-10.341s5.137 42.92-9.91 58.173zm-9.697-39.689a4.836 4.836 0 01-.001 6.774l-10.231 10.371 9.491-1.402c2.583-.381 4.982 1.432 5.357 4.05.377 2.618-1.411 5.049-3.994 5.431l-23.586 3.483a4.71 4.71 0 01-4.905-2.592 4.84 4.84 0 01.882-5.535l4.307-4.365V410.14c0-2.646 2.116-4.791 4.726-4.791s4.725 2.145 4.725 4.791v2.623l6.545-6.634a4.681 4.681 0 016.684 0zm-35.718 110.104c-1.574 1.595-4.76 2.997-8.509 3.158-3.679.158-7.076-.912-9.292-3.158-4.915-4.982-4.915-13.061 0-18.044 3.005-3.046 8.721-4.356 14.773-4.582 2.701-.101 5.2.022 7.09.182.113 2.039.186 4.766.048 7.688-.143 3.026-.507 6.133-1.227 8.85-.735 2.776-1.738 4.746-2.883 5.906zm3.067 3.109c-5.076 5.145-17.326 6.7-23.935 0-6.609-6.699-6.609-17.562 0-24.262 8.534-8.651 28.962-5.246 28.962-5.246s2.605 21.771-5.027 29.508zm-4.919-20.132a2.454 2.454 0 010 3.437l-5.19 5.26 4.814-.711c1.311-.193 2.527.726 2.718 2.054.191 1.328-.716 2.562-2.026 2.755l-11.964 1.767a2.389 2.389 0 01-2.488-1.315 2.456 2.456 0 01.447-2.808l2.185-2.214v-6.19c0-1.342 1.073-2.43 2.397-2.43 1.324 0 2.397 1.088 2.397 2.43v1.331l3.32-3.366a2.374 2.374 0 013.39 0zM345.115 352.233c-1.574 1.595-4.76 2.997-8.509 3.158-3.679.158-7.076-.912-9.292-3.158-4.915-4.982-4.915-13.061 0-18.044 3.005-3.046 8.721-4.356 14.773-4.582 2.701-.101 5.2.022 7.09.182.113 2.039.186 4.766.048 7.688-.143 3.026-.507 6.133-1.227 8.85-.735 2.776-1.738 4.746-2.883 5.906zm3.067 3.109c-5.076 5.145-17.326 6.7-23.935 0-6.609-6.699-6.609-17.562 0-24.262 8.534-8.651 28.962-5.246 28.962-5.246s2.605 21.771-5.027 29.508zm-4.919-20.132a2.454 2.454 0 010 3.437l-5.19 5.26 4.815-.711c1.31-.193 2.526.726 2.717 2.054.191 1.328-.716 2.562-2.026 2.755l-11.964 1.767a2.389 2.389 0 01-2.488-1.315 2.456 2.456 0 01.447-2.808l2.185-2.214v-6.19c0-1.342 1.073-2.43 2.397-2.43 1.324 0 2.397 1.088 2.397 2.43v1.331l3.32-3.366a2.374 2.374 0 013.39 0zM66.068 194.571c-2.113 2.141-6.391 4.024-11.426 4.24-4.94.212-9.502-1.225-12.477-4.241-6.6-6.691-6.6-17.539 0-24.231 4.035-4.09 11.71-5.85 19.838-6.152 3.626-.135 6.982.03 9.52.244.152 2.738.25 6.4.065 10.324-.192 4.064-.68 8.236-1.647 11.884-.988 3.728-2.335 6.373-3.873 7.932zm4.12 4.175c-6.816 6.908-23.266 8.997-32.142 0-8.875-8.998-8.875-23.585 0-32.582 11.46-11.616 38.891-7.043 38.891-7.043s3.5 29.235-6.75 39.625zm-6.606-27.035a3.294 3.294 0 010 4.614l-6.97 7.065 6.465-.955c1.76-.26 3.393.975 3.65 2.758.256 1.783-.962 3.44-2.722 3.7l-16.065 2.372a3.207 3.207 0 01-3.341-1.765 3.298 3.298 0 01.6-3.771l2.934-2.973v-8.313c0-1.802 1.441-3.263 3.22-3.263 1.777 0 3.218 1.461 3.218 3.263v1.787l4.458-4.519a3.19 3.19 0 014.553 0z" fill="#fff" fill-opacity=".2"/></svg>