<svg width="978" height="584" viewBox="0 0 978 584" fill="none" xmlns="http://www.w3.org/2000/svg">
<path fill-rule="evenodd" clip-rule="evenodd" d="M70.8829 73.141C66.6117 77.4248 57.9641 81.1891 47.7876 81.6219C37.801 82.0467 28.5809 79.1729 22.5676 73.1409C9.22527 59.7585 9.22528 38.0614 22.5664 24.6789C30.7235 16.4975 46.238 12.9788 62.6653 12.3732C69.9958 12.103 76.778 12.4331 81.908 12.8619C82.2161 18.3371 82.4138 25.6617 82.0389 33.5091C81.6512 41.6372 80.664 49.9816 78.7101 57.2786C76.7138 64.733 73.9909 70.0239 70.8829 73.141ZM79.2082 81.491C65.4319 95.3079 32.1819 99.4851 14.2423 81.491C-3.6973 63.497 -3.6973 34.3229 14.2423 16.3288C37.4056 -6.90464 92.8522 2.24112 92.8522 2.24112C92.8522 2.24112 99.9246 60.7111 79.2082 81.491ZM65.8568 27.422C68.3974 29.9705 68.3974 34.1026 65.8556 36.651L51.7699 50.7793L64.8375 48.8696C68.3936 48.35 71.6955 50.82 72.2128 54.3865C72.7315 57.9529 70.2692 61.2655 66.7131 61.785L34.2398 66.5306C31.4655 66.9361 28.7439 65.5131 27.4871 62.9993C26.2303 60.4856 26.7194 57.4467 28.7015 55.4582L34.6314 49.5115V32.8857C34.6314 29.2815 37.5443 26.3598 41.1376 26.3598C44.7309 26.3598 47.6438 29.2815 47.6438 32.8857V36.4603L56.6547 27.4217C59.1966 24.8733 63.3149 24.8734 65.8568 27.422Z" fill="white" fill-opacity="0.2"/>
<path fill-rule="evenodd" clip-rule="evenodd" d="M180.991 143.132C177.979 146.186 171.88 148.869 164.703 149.177C157.66 149.48 151.157 147.432 146.916 143.132C137.506 133.594 137.506 118.129 146.915 108.59C152.668 102.759 163.61 100.251 175.196 99.8192C180.365 99.6266 185.149 99.8619 188.767 100.168C188.984 104.07 189.123 109.291 188.859 114.884C188.586 120.678 187.889 126.625 186.511 131.826C185.103 137.14 183.183 140.911 180.991 143.132ZM186.863 149.084C177.147 158.932 153.697 161.91 141.045 149.084C128.392 136.258 128.392 115.464 141.045 102.639C157.381 86.0786 196.485 92.5974 196.485 92.5974C196.485 92.5974 201.473 134.273 186.863 149.084ZM177.446 110.545C179.238 112.362 179.238 115.307 177.445 117.124L167.511 127.194L176.728 125.833C179.235 125.462 181.564 127.223 181.929 129.765C182.295 132.307 180.558 134.668 178.05 135.038L155.148 138.421C153.191 138.71 151.272 137.696 150.386 135.904C149.499 134.112 149.844 131.946 151.242 130.529L155.424 126.29V114.44C155.424 111.871 157.479 109.788 160.013 109.788C162.547 109.788 164.601 111.871 164.601 114.44V116.988L170.956 110.545C172.749 108.729 175.654 108.729 177.446 110.545Z" fill="white" fill-opacity="0.2"/>
<path fill-rule="evenodd" clip-rule="evenodd" d="M41.3068 572.905C39.0588 575.183 34.5074 577.186 29.1513 577.416C23.8953 577.642 19.0426 576.113 15.8777 572.905C8.8554 565.786 8.8554 554.245 15.877 547.127C20.1703 542.775 28.3358 540.904 36.9818 540.582C40.8399 540.438 44.4095 540.613 47.1095 540.841C47.2716 543.754 47.3757 547.65 47.1784 551.824C46.9743 556.147 46.4547 560.586 45.4263 564.467C44.3757 568.432 42.9426 571.247 41.3068 572.905ZM45.6885 577.346C38.4378 584.696 20.9378 586.918 11.4959 577.346C2.05405 567.775 2.05405 552.257 11.4959 542.686C23.6872 530.327 52.8696 535.192 52.8696 535.192C52.8696 535.192 56.5919 566.293 45.6885 577.346ZM38.6615 548.586C39.9986 549.942 39.9986 552.14 38.6608 553.495L31.2473 561.01L38.125 559.994C39.9966 559.718 41.7345 561.032 42.0068 562.929C42.2797 564.826 40.9838 566.588 39.1122 566.864L22.0209 569.389C20.5608 569.604 19.1284 568.847 18.4669 567.51C17.8054 566.173 18.0628 564.557 19.1061 563.499L22.227 560.336V551.492C22.227 549.575 23.7601 548.021 25.6514 548.021C27.5426 548.021 29.0757 549.575 29.0757 551.492V553.394L33.8182 548.586C35.1561 547.23 37.3236 547.231 38.6615 548.586Z" fill="white" fill-opacity="0.2"/>
<path fill-rule="evenodd" clip-rule="evenodd" d="M474.483 384.689C471.381 387.833 465.1 390.596 457.709 390.914C450.455 391.226 443.759 389.116 439.391 384.689C429.7 374.865 429.7 358.939 439.39 349.115C445.315 343.11 456.583 340.527 468.515 340.082C473.839 339.884 478.765 340.126 482.491 340.441C482.715 344.46 482.858 349.837 482.586 355.597C482.305 361.564 481.588 367.689 480.168 373.045C478.718 378.517 476.741 382.401 474.483 384.689ZM480.53 390.818C470.524 400.96 446.374 404.026 433.344 390.818C420.315 377.61 420.315 356.194 433.344 342.986C450.168 325.932 490.44 332.645 490.44 332.645C490.44 332.645 495.577 375.565 480.53 390.818ZM470.833 351.129C472.678 353 472.678 356.033 470.832 357.903L460.601 368.274L470.092 366.872C472.675 366.491 475.074 368.304 475.449 370.922C475.826 373.54 474.038 375.971 471.455 376.353L447.869 379.836C445.854 380.134 443.877 379.089 442.964 377.244C442.051 375.399 442.407 373.168 443.846 371.709L448.153 367.344V355.14C448.153 352.494 450.269 350.349 452.879 350.349C455.489 350.349 457.604 352.494 457.604 355.14V357.763L464.149 351.129C465.995 349.258 468.987 349.258 470.833 351.129Z" fill="white" fill-opacity="0.2"/>
<path fill-rule="evenodd" clip-rule="evenodd" d="M960.483 439.689C957.381 442.833 951.1 445.596 943.709 445.914C936.455 446.226 929.759 444.116 925.391 439.689C915.7 429.865 915.7 413.939 925.39 404.115C931.315 398.11 942.583 395.527 954.515 395.082C959.839 394.884 964.765 395.126 968.491 395.441C968.715 399.46 968.858 404.837 968.586 410.597C968.305 416.564 967.587 422.689 966.168 428.045C964.718 433.517 962.741 437.401 960.483 439.689ZM966.53 445.818C956.524 455.96 932.374 459.026 919.344 445.818C906.315 432.61 906.315 411.194 919.344 397.986C936.168 380.932 976.44 387.645 976.44 387.645C976.44 387.645 981.577 430.565 966.53 445.818ZM956.833 406.129C958.678 408 958.678 411.033 956.832 412.903L946.601 423.274L956.092 421.872C958.675 421.491 961.074 423.304 961.449 425.922C961.826 428.54 960.038 430.971 957.455 431.353L933.869 434.836C931.854 435.134 929.877 434.089 928.964 432.244C928.051 430.399 928.407 428.168 929.846 426.709L934.153 422.344V410.14C934.153 407.494 936.269 405.349 938.879 405.349C941.489 405.349 943.604 407.494 943.604 410.14V412.763L950.149 406.129C951.995 404.258 954.987 404.258 956.833 406.129Z" fill="white" fill-opacity="0.2"/>
<path fill-rule="evenodd" clip-rule="evenodd" d="M921.115 516.233C919.541 517.828 916.355 519.23 912.606 519.391C908.927 519.549 905.53 518.479 903.314 516.233C898.399 511.251 898.399 503.172 903.314 498.189C906.319 495.143 912.035 493.833 918.087 493.607C920.788 493.506 923.287 493.629 925.177 493.789C925.29 495.828 925.363 498.555 925.225 501.477C925.082 504.503 924.718 507.61 923.998 510.327C923.263 513.103 922.26 515.073 921.115 516.233ZM924.182 519.342C919.106 524.487 906.856 526.042 900.247 519.342C893.638 512.643 893.638 501.78 900.247 495.08C908.781 486.429 929.209 489.834 929.209 489.834C929.209 489.834 931.814 511.605 924.182 519.342ZM919.263 499.21C920.199 500.159 920.199 501.698 919.263 502.647L914.073 507.907L918.887 507.196C920.198 507.003 921.414 507.922 921.605 509.25C921.796 510.578 920.889 511.812 919.579 512.005L907.615 513.772C906.593 513.923 905.59 513.393 905.127 512.457C904.664 511.521 904.844 510.39 905.574 509.649L907.759 507.435V501.245C907.759 499.903 908.832 498.815 910.156 498.815C911.48 498.815 912.553 499.903 912.553 501.245V502.576L915.873 499.21C916.809 498.261 918.327 498.261 919.263 499.21Z" fill="white" fill-opacity="0.2"/>
<path fill-rule="evenodd" clip-rule="evenodd" d="M345.115 352.233C343.541 353.828 340.355 355.23 336.606 355.391C332.927 355.549 329.53 354.479 327.314 352.233C322.399 347.251 322.399 339.172 327.314 334.189C330.319 331.143 336.035 329.833 342.087 329.607C344.788 329.506 347.287 329.629 349.177 329.789C349.29 331.828 349.363 334.555 349.225 337.477C349.082 340.503 348.718 343.61 347.998 346.327C347.263 349.103 346.26 351.073 345.115 352.233ZM348.182 355.342C343.106 360.487 330.856 362.042 324.247 355.342C317.638 348.643 317.638 337.78 324.247 331.08C332.781 322.429 353.209 325.834 353.209 325.834C353.209 325.834 355.814 347.605 348.182 355.342ZM343.263 335.21C344.199 336.159 344.199 337.698 343.263 338.647L338.073 343.907L342.888 343.196C344.198 343.003 345.414 343.922 345.605 345.25C345.796 346.578 344.889 347.812 343.579 348.005L331.615 349.772C330.593 349.923 329.59 349.393 329.127 348.457C328.664 347.521 328.844 346.39 329.574 345.649L331.759 343.435V337.245C331.759 335.903 332.832 334.815 334.156 334.815C335.48 334.815 336.553 335.903 336.553 337.245V338.576L339.873 335.21C340.809 334.261 342.327 334.261 343.263 335.21Z" fill="white" fill-opacity="0.2"/>
<path fill-rule="evenodd" clip-rule="evenodd" d="M66.0683 194.571C63.9553 196.712 59.677 198.595 54.6423 198.811C49.7015 199.023 45.14 197.586 42.165 194.57C35.5641 187.879 35.5641 177.031 42.1644 170.339C46.2001 166.249 53.8757 164.489 62.0028 164.187C65.6295 164.052 68.9849 164.217 71.5229 164.431C71.6753 167.169 71.7731 170.831 71.5877 174.755C71.3959 178.819 70.9074 182.991 69.9408 186.639C68.9531 190.367 67.606 193.012 66.0683 194.571ZM70.1872 198.746C63.3716 205.654 46.9216 207.743 38.0462 198.746C29.1708 189.748 29.1708 175.161 38.0462 166.164C49.5059 154.548 76.9374 159.121 76.9374 159.121C76.9374 159.121 80.4364 188.356 70.1872 198.746ZM63.5818 171.711C64.8387 172.985 64.8387 175.051 63.5812 176.325L56.6125 183.39L63.0775 182.435C64.8368 182.175 66.4704 183.41 66.7263 185.193C66.9829 186.976 65.7648 188.633 64.0054 188.893L47.9397 191.265C46.5672 191.468 45.2207 190.757 44.5989 189.5C43.9771 188.243 44.2191 186.723 45.1997 185.729L48.1334 182.756V174.443C48.1334 172.641 49.5745 171.18 51.3523 171.18C53.13 171.18 54.5711 172.641 54.5711 174.443V176.23L59.0291 171.711C60.2867 170.437 62.3242 170.437 63.5818 171.711Z" fill="white" fill-opacity="0.2"/>
</svg>
